# xmcd
#
# Track frame offsets:
#	150
#	21911
#	47781
#
# Disc length: 1109 seconds
#
# Revision: 5
# Processed by: cddbd v1.5.2PL0 Copyright (c) Steve Scherf et al.
# Submitted via: audiograbber 1.83.01
#
DISCID=1f045303
DTITLE=Madonna - (Maxi) Give It 2 Me
DYEAR=2008
DGENRE=Pop
TTITLE0=Give It 2 Me [Album Version]
TTITLE1=Give It 2 Me [Oakenfold Drums In]
TTITLE2=Give It 2 Me [Eddie Amador House Lovers Remix]
EXTD=
EXTT0=
EXTT1=
EXTT2=
PLAYORDER=
